<svg width="88" height="74" viewBox="0 0 88 74" fill="none" xmlns="http://www.w3.org/2000/svg">
<path d="M67.6263 56.5132C65.8123 56.4863 64.0342 57.0234 62.5353 58.051L59.1452 60.5032C58.1764 61.1484 57.0352 61.4818 55.8733 61.4591H55.8201C54.6581 61.4826 53.5167 61.1491 52.5482 60.5032L49.1581 58.051C47.6465 57.0482 45.8753 56.5136 44.0642 56.5136C42.2531 56.5136 40.4819 57.0482 38.9702 58.051L35.5801 60.5032C34.6116 61.1491 33.4702 61.4826 32.3082 61.4591H32.2728C31.1127 61.4817 29.9734 61.1483 29.0067 60.5032L25.6166 58.051C24.1041 57.0477 22.3318 56.5128 20.5197 56.5128C18.7076 56.5128 16.9354 57.0477 15.4228 58.051L12.0327 60.5032C11.0661 61.1483 9.92677 61.4817 8.76673 61.4591H8.71356C7.55156 61.4826 6.41011 61.1491 5.44162 60.5032L2.05156 58.051C1.7227 57.7828 1.32167 57.6195 0.899877 57.5819C0.736598 57.5817 0.576108 57.6243 0.434214 57.7056C0.292321 57.7868 0.173932 57.9038 0.0907527 58.045C-0.405355 58.7694 1.64404 62.2013 3.63438 63.1335C5.62471 64.0657 6.92994 64.6713 8.72538 64.6772C10.5422 64.7048 12.3229 64.1654 13.8223 63.1335L17.2124 60.6872C18.1787 60.0591 19.3102 59.7365 20.4607 59.761H20.5079C21.6695 59.7405 22.8101 60.0737 23.7799 60.7169L27.1699 63.1632C28.6802 64.1697 30.452 64.7064 32.2639 64.7064C34.0758 64.7064 35.8476 64.1697 37.3579 63.1632L40.7538 60.7169C41.7213 60.0735 42.8601 59.7402 44.0199 59.761H44.0848C45.2463 59.7413 46.3867 60.0744 47.3568 60.7169L50.7469 63.1632C52.2571 64.1697 54.0289 64.7064 55.8408 64.7064C57.6528 64.7064 59.4246 64.1697 60.9348 63.1632L64.3249 60.7169C65.2946 60.0737 66.4352 59.7405 67.5968 59.761H67.65C68.8115 59.7413 69.9518 60.0744 70.9219 60.7169L74.312 63.1632C75.8092 64.195 77.5879 64.7344 79.403 64.7069C81.2167 64.7123 82.991 64.1749 84.4999 63.1632C85.9055 62.1716 88.4274 58.9238 87.9313 58.1994C87.8466 58.047 87.7246 57.919 87.5767 57.8275C87.4289 57.7361 87.2602 57.6842 87.0867 57.6769C86.723 57.7077 86.3771 57.8485 86.0945 58.0807L82.6985 60.5328C81.7339 61.1606 80.6051 61.4851 79.4561 61.465H79.403C78.241 61.4885 77.0995 61.155 76.131 60.5091L72.741 58.0569C71.2411 57.0267 69.4603 56.4895 67.644 56.5191L67.6263 56.5132ZM67.644 65.4669H67.5791C65.7644 65.4487 63.987 65.985 62.4822 67.0047L59.0921 69.4569C58.1223 70.1001 56.9817 70.4333 55.8201 70.4129H55.7729C54.6114 70.4326 53.471 70.0994 52.501 69.4569L49.1109 67.0047C47.5992 66.0019 45.828 65.4674 44.0169 65.4674C42.2058 65.4674 40.4346 66.0019 38.923 67.0047L35.527 69.4569C34.5577 70.1011 33.4168 70.4344 32.255 70.4129H32.2137C31.0503 70.4334 29.9077 70.1002 28.9358 69.4569L25.5458 67.0047C24.0409 65.985 22.2635 65.4487 20.4489 65.4669H20.3898C17.5726 65.4669 14.4838 68.5307 14.974 69.255C15.0904 69.4268 15.2398 69.5734 15.4133 69.6864C15.5869 69.7993 15.7811 69.8763 15.9846 69.9128C16.1882 69.9493 16.3969 69.9446 16.5986 69.8989C16.8003 69.8533 16.9909 69.7676 17.1592 69.6469C18.1275 68.9999 19.2687 68.6645 20.4312 68.685H20.4607C21.6251 68.6636 22.7684 68.9991 23.7385 69.6469L27.1286 72.0932C28.6388 73.0996 30.4106 73.6364 32.2225 73.6364C34.0345 73.6364 35.8063 73.0996 37.3165 72.0932L40.7066 69.6469C41.6749 68.9999 42.8161 68.6645 43.9785 68.685H44.0258C45.1883 68.6645 46.3294 68.9999 47.2977 69.6469L50.6878 72.0932C52.1989 73.1002 53.9717 73.6372 55.7847 73.6372C57.5977 73.6372 59.3705 73.1002 60.8816 72.0932L64.2717 69.6469C65.2395 68.9989 66.381 68.6633 67.5436 68.685H67.585C68.7494 68.6636 69.8927 68.9991 70.8628 69.6469C71.125 69.8347 71.4386 69.9364 71.7605 69.9379C72.01 69.9363 72.2553 69.8738 72.4754 69.7559C72.6956 69.638 72.884 69.4682 73.0244 69.261C73.5206 68.5366 70.4849 65.4729 67.6145 65.4729" fill="#F59C1A"/>
<path d="M43.8929 0C43.5672 0.00126815 43.2505 0.10738 42.9893 0.3028L28.7557 11.1506L19.4182 3.90687C19.1575 3.71031 18.8405 3.60407 18.5146 3.60407C18.1888 3.60407 17.8717 3.71031 17.611 3.90687L0.648862 16.7615C0.312008 17.0162 0.0858864 17.3917 0.0176686 17.8099C-0.0505491 18.228 0.0444039 18.6564 0.282691 19.0059C0.282691 19.0059 0.329923 19.0356 0.377171 19.0356C1.82415 19.0356 18.5146 7.94438 18.5146 7.94438C18.5146 7.94438 35.276 19.2256 35.8193 19.2256L43.881 14.25C43.881 14.25 52.5157 19.0475 53.4843 19.0475C53.5256 19.0475 53.5552 19.0475 53.567 19.0475C53.8067 18.6985 53.9025 18.2696 53.8342 17.8511C53.7659 17.4325 53.5389 17.0569 53.2008 16.8031V16.8031L44.7847 10.6103C44.5216 10.4192 44.2057 10.3154 43.881 10.3134C43.5559 10.3117 43.2389 10.4159 42.9774 10.6103L35.4649 16.1381L31.4252 13.1694L43.881 4.38188L64.4754 19.0475C64.5233 19.0769 64.5788 19.0914 64.6349 19.0891C65.5739 19.0891 69.2593 16.7437 69.2593 16.7437C69.2593 16.7437 73.3935 19.1187 74.2676 19.1187C74.2933 19.1217 74.3192 19.119 74.3437 19.1107C74.3682 19.1025 74.3906 19.0891 74.4094 19.0712C74.9055 18.3469 74.5275 17.5809 73.8188 17.0644L70.1452 13.8641C69.8882 13.6749 69.5779 13.573 69.2593 13.573C68.9408 13.573 68.6305 13.6749 68.3734 13.8641L65.4204 16.1619L61.7468 13.1931L69.3007 8.00968C69.3007 8.00968 86.5994 19.0712 87.5149 19.0712C88.3535 18.8575 88.0464 17.5334 87.1487 16.8269C86.251 16.1203 70.1866 3.96625 70.1866 3.96625C69.9281 3.78056 69.6184 3.68073 69.3007 3.68073C68.983 3.68073 68.6732 3.78056 68.4148 3.96625L59.0773 11.2159L44.8379 0.368122C44.577 0.171946 44.26 0.0657302 43.9342 0.0653038L43.8929 0ZM18.5382 13.5612C18.2153 13.5621 17.9009 13.666 17.6405 13.8581L13.648 17.1594C13.4944 17.2585 13.3641 17.3901 13.2661 17.545C13.1682 17.6998 13.1049 17.8743 13.0808 18.0562C13.0566 18.2381 13.0721 18.4231 13.1262 18.5984C13.1803 18.7737 13.2717 18.935 13.3941 19.0712C13.4402 19.0992 13.494 19.1117 13.5476 19.1069C14.4985 19.1069 18.5382 16.7675 18.5382 16.7675C18.5382 16.7675 22.7138 19.1425 23.706 19.1425C23.8123 19.1425 23.8832 19.1425 23.9069 19.0475C24.0124 18.679 24.0158 18.2885 23.917 17.9181C23.8181 17.5478 23.6206 17.2115 23.3458 16.9456L19.4419 13.8344C19.1797 13.6414 18.8632 13.5375 18.5382 13.5375" fill="#F59C1A"/>
<path d="M87.9526 23.1084C83.3477 24.6218 78.383 24.6218 73.7781 23.1084V26.5106C75.3993 27.0678 77.0841 27.4169 78.7923 27.5497V52.6356H82.9265V27.5497C84.6349 27.4178 86.3197 27.0686 87.9408 26.5106L87.9526 23.1084ZM67.9488 23.1084C66.2774 23.7021 64.4052 26.564 63.1236 29.4793C61.842 32.3947 60.8084 36.4084 60.8084 52.6356H64.9426C64.9426 46.5378 65.2675 39.4603 65.7045 35.6425H70.1813C70.6183 39.4603 70.9432 46.5378 70.9432 52.6356H75.0774C75.0774 36.3075 74.0143 32.4481 72.7563 29.4793C71.4983 26.5106 69.6084 23.6962 67.937 23.1084H67.9488ZM66.242 32.0622C66.7026 30.1681 67.3877 28.559 67.937 28.0662C68.6103 28.559 69.1655 30.1681 69.632 32.0622H66.242ZM14.1979 23.1084C9.59301 24.6218 4.62837 24.6218 0.0234375 23.1084V26.5106C1.64445 27.0686 3.32929 27.4178 5.03766 27.5497V52.6356H9.17189V27.5497C10.8801 27.4169 12.5649 27.0678 14.1861 26.5106L14.1979 23.1084ZM51.9966 23.4884H46.6398V52.5822H50.774C53.5322 52.5822 55.8237 51.6975 57.2707 50.0409C58.6735 48.4238 59.4346 46.3439 59.4087 44.1984C59.4087 40.4459 57.8613 38.2609 56.5206 36.1887C56.1829 35.6719 55.8015 35.1852 55.3808 34.734C56.368 34.2617 57.2054 33.5232 57.7997 32.6006C58.3941 31.6781 58.7221 30.6079 58.7472 29.509C58.7472 26.1662 55.7174 23.4587 51.973 23.4587L51.9966 23.4884ZM50.7563 31.8603V27.1578H51.973C52.308 27.1098 52.6493 27.1347 52.9739 27.2309C53.2985 27.327 53.5988 27.4922 53.8544 27.7151C54.11 27.9381 54.315 28.2136 54.4554 28.5231C54.5959 28.8326 54.6686 29.1688 54.6686 29.509C54.6686 29.8492 54.5959 30.1855 54.4554 30.495C54.315 30.8045 54.11 31.08 53.8544 31.303C53.5988 31.5259 53.2985 31.691 52.9739 31.7872C52.6493 31.8833 52.308 31.9083 51.973 31.8603H50.7563ZM50.7563 49.174V35.589H50.839C51.7325 36.447 52.5252 37.4053 53.2014 38.445C54.3675 40.1388 55.0143 42.139 55.0618 44.1984C55.0618 45.6472 54.7193 47.0544 54.1641 47.6719C53.7405 48.1665 53.213 48.5605 52.6196 48.8254C52.0262 49.0903 51.3818 49.2195 50.7327 49.2037L50.7563 49.174ZM37.2433 23.4884H31.8865V52.5822H36.0207V35.589H36.1212C37.2291 36.7427 38.0894 38.1129 38.6489 39.6147C39.712 42.239 40.6275 46.3181 40.6275 52.6118H44.7617C44.7617 45.3622 43.6927 41.5562 42.3993 38.3025C41.9133 37.0701 41.2442 35.919 40.4148 34.8884C41.4624 34.4382 42.3596 33.6956 43.0002 32.7485C43.6408 31.8014 43.998 30.6895 44.0293 29.5446C44.0293 26.2018 40.9995 23.4944 37.2551 23.4944L37.2433 23.4884ZM36.0385 31.8959V27.1934H37.2551C37.5901 27.1454 37.9315 27.1703 38.2561 27.2665C38.5807 27.3627 38.8809 27.5278 39.1365 27.7507C39.3921 27.9737 39.5971 28.2492 39.7376 28.5587C39.8781 28.8682 39.9508 29.2044 39.9508 29.5446C39.9508 29.8848 39.8781 30.2211 39.7376 30.5306C39.5971 30.8401 39.3921 31.1156 39.1365 31.3386C38.8809 31.5615 38.5807 31.7267 38.2561 31.8228C37.9315 31.919 37.5901 31.9439 37.2551 31.8959H36.0385ZM29.3587 23.4944H25.2245V46.1875V46.5675C25.2245 47.2698 24.947 47.9434 24.453 48.44C23.959 48.9366 23.289 49.2156 22.5904 49.2156C21.8918 49.2156 21.2218 48.9366 20.7278 48.44C20.2338 47.9434 19.9563 47.2698 19.9563 46.5675V23.4884H15.8221V46.1815C15.8221 47.9877 16.5358 49.72 17.8062 50.9971C19.0766 52.2743 20.7997 52.9918 22.5963 52.9918C24.3929 52.9918 26.116 52.2743 27.3864 50.9971C28.6568 49.72 29.3706 47.9877 29.3706 46.1815L29.3587 23.4944Z" fill="#F6F6F6"/>
</svg>
